<svg xmlns="http://www.w3.org/2000/svg" version="1.1" xmlns:xlink="http://www.w3.org/1999/xlink" xmlns:svgjs="http://svgjs.dev/svgjs" width="2000" height="1500" viewBox="0 0 2000 1500"><rect width="2000" height="1500" fill="#ffffff"></rect><g transform="matrix(0.75,0,0,0.75,249.090909090909,282.7536437246963)"><svg viewBox="0 0 396 247" data-background-color="#ffffff" preserveAspectRatio="xMidYMid meet" height="1247" width="2000" xmlns="http://www.w3.org/2000/svg" xmlns:xlink="http://www.w3.org/1999/xlink"><g id="tight-bounds" transform="matrix(1,0,0,1,0.2400000000000091,-0.09999999999999432)"><svg viewBox="0 0 395.52 247.2" height="247.2" width="395.52"><g><svg></svg></g><g><svg viewBox="0 0 395.52 247.2" height="247.2" width="395.52"><mask id="533f3dc3-cc4a-4b41-889d-a9dbc5b59ec1"><rect width="395.52" height="247.2" fill="white"></rect><g transform="matrix(1,0,0,1,0,90.75048044692736)" id="clone"><svg viewBox="0 0 395.52 65.69903910614526" height="65.69903910614526" width="395.52"><g><svg viewBox="0 0 395.52 65.69903910614526" height="65.69903910614526" width="395.52"><g><svg viewBox="0 0 395.52 65.69903910614526" height="65.69903910614526" width="395.52"><g id="SvgjsG1012"><svg viewBox="0 0 395.52 65.69903910614526" height="65.69903910614526" width="395.52" id="SvgjsSvg1011"><g><svg viewBox="0 0 395.52 65.69903910614526" height="65.69903910614526" width="395.52"><g transform="matrix(1,0,0,1,0,0)"><svg width="395.52" viewBox="-2 -41.9 269.48 45.6" height="65.69903910614526" data-palette-color="#000000"><path d="M1 0L1-8.2 3.5-8.2 3.5-30.7 1-30.7 1-38.9 23.95-38.9Q30.2-38.9 33.7-36.35 37.2-33.8 37.2-29.05L37.2-29.05Q37.2-26.1 35.8-24.08 34.4-22.05 32.52-21.03 30.65-20 28.9-19.65L28.9-19.65 28.9-19.15Q32.45-18.8 35.3-16.9 38.15-15 38.15-10.1L38.15-10.1Q38.15-4.85 34.2-2.43 30.25 0 23.95 0L23.95 0 1 0ZM17.5-22.5L20.2-22.5Q21.65-22.5 22.38-23.28 23.1-24.05 23.1-25.7L23.1-25.7 23.1-27.5Q23.1-29.15 22.38-29.93 21.65-30.7 20.2-30.7L20.2-30.7 17.5-30.7 17.5-22.5ZM17.5-8.2L20.55-8.2Q22-8.2 22.73-8.97 23.45-9.75 23.45-11.4L23.45-11.4 23.45-13.6Q23.45-15.25 22.73-16.03 22-16.8 20.55-16.8L20.55-16.8 17.5-16.8 17.5-8.2ZM61-28.5Q62-28.5 62.9-28.3 63.8-28.1 64.4-27.8L64.4-27.8 64.4-18.25Q62.35-19.1 60-19.1L60-19.1Q56.85-19.1 55.15-17.45 53.45-15.8 53.45-12.55L53.45-12.55 53.45-8.2 57.95-8.2 57.95 0 39.75 0 39.75-8.2 41.95-8.2 41.95-19.6 39.75-19.6 39.75-27.8 53.45-27.8 53.45-24.15Q54.85-26.25 56.65-27.38 58.45-28.5 61-28.5L61-28.5ZM92.94-8.2L95.14-8.2 95.14 0 81.94 0 81.94-3.4Q80.84-1.8 78.87-0.55 76.89 0.7 74.05 0.7L74.05 0.7Q70.3 0.7 68.14-1.3 66-3.3 66-6.95L66-6.95Q66-16.4 82.05-16.65L82.05-16.65Q81.89-18.35 80.75-18.98 79.59-19.6 76.84-19.6L76.84-19.6Q74.59-19.6 72.02-19.13 69.44-18.65 67.3-17.85L67.3-17.85 67.3-27.05Q69.94-27.7 73.05-28.1 76.14-28.5 79.09-28.5L79.09-28.5Q86.55-28.5 89.75-25.8 92.94-23.1 92.94-17.45L92.94-17.45 92.94-8.2ZM81.94-11.4L81.94-11.7Q79.69-11.7 78.47-11.1 77.25-10.5 77.25-9.1L77.25-9.1Q77.25-8.25 77.77-7.73 78.3-7.2 79.25-7.2L79.25-7.2Q80.55-7.2 81.25-8.3 81.94-9.4 81.94-11.4L81.94-11.4ZM109.34-30.55L99.14-30.55 99.14-38.9 109.34-38.9 109.34-30.55ZM112.64 0L96.74 0 96.74-8.2 98.94-8.2 98.94-19.6 96.74-19.6 96.74-27.8 110.44-27.8 110.44-8.2 112.64-8.2 112.64 0ZM145.04-8.2L147.24-8.2 147.24 0 131.44 0 131.44-8.2 133.54-8.2 133.54-16.4Q133.54-18.05 132.84-18.82 132.14-19.6 130.74-19.6L130.74-19.6Q127.74-19.6 127.74-16.4L127.74-16.4 127.74-8.2 129.84-8.2 129.84 0 114.04 0 114.04-8.2 116.24-8.2 116.24-19.6 114.04-19.6 114.04-27.8 127.74-27.8 127.74-23.9Q131.34-28.5 136.74-28.5L136.74-28.5Q140.89-28.5 142.97-25.9 145.04-23.3 145.04-18.75L145.04-18.75 145.04-8.2ZM163.94 0L163.94-8.2 166.44-8.2 166.44-30.7 163.94-30.7 163.94-38.9 186.88-38.9Q193.13-38.9 196.63-36.35 200.13-33.8 200.13-29.05L200.13-29.05Q200.13-26.1 198.74-24.08 197.34-22.05 195.46-21.03 193.59-20 191.84-19.65L191.84-19.65 191.84-19.15Q195.38-18.8 198.24-16.9 201.09-15 201.09-10.1L201.09-10.1Q201.09-4.85 197.13-2.43 193.19 0 186.88 0L186.88 0 163.94 0ZM180.44-22.5L183.13-22.5Q184.59-22.5 185.31-23.28 186.03-24.05 186.03-25.7L186.03-25.7 186.03-27.5Q186.03-29.15 185.31-29.93 184.59-30.7 183.13-30.7L183.13-30.7 180.44-30.7 180.44-22.5ZM180.44-8.2L183.49-8.2Q184.94-8.2 185.66-8.97 186.38-9.75 186.38-11.4L186.38-11.4 186.38-13.6Q186.38-15.25 185.66-16.03 184.94-16.8 183.49-16.8L183.49-16.8 180.44-16.8 180.44-8.2ZM217.48 0.7Q210.38 0.7 206.38-3.03 202.38-6.75 202.38-13.9L202.38-13.9Q202.38-21.05 206.38-24.78 210.38-28.5 217.48-28.5L217.48-28.5Q224.68-28.5 228.63-24.73 232.58-20.95 232.58-13.9L232.58-13.9Q232.58-6.75 228.58-3.03 224.58 0.7 217.48 0.7L217.48 0.7ZM217.48-8.2Q218.93-8.2 219.66-8.97 220.38-9.75 220.38-11.4L220.38-11.4 220.38-16.4Q220.38-18.05 219.66-18.82 218.93-19.6 217.48-19.6L217.48-19.6Q216.03-19.6 215.31-18.82 214.58-18.05 214.58-16.4L214.58-16.4 214.58-11.4Q214.58-9.75 215.31-8.97 216.03-8.2 217.48-8.2L217.48-8.2ZM256.43-14.3L262.88-8.2 264.48-8.2 264.48 0 248.88 0 248.88-8.2 250.28-8.2 248.33-11.15 247.83-11.15 245.88-8.2 247.28-8.2 247.28 0 233.88 0 233.88-8.2 235.98-8.2 242.03-13.6 235.68-19.6 234.08-19.6 234.08-27.8 249.68-27.8 249.68-19.6 248.28-19.6 250.23-16.7 250.73-16.7 252.68-19.6 251.28-19.6 251.28-27.8 264.28-27.8 264.28-19.6 262.18-19.6 256.43-14.3Z" opacity="1" transform="matrix(1,0,0,1,0,0)" fill="black" class="wordmark-text-0" id="SvgjsPath1010" stroke-width="5" stroke="black" stroke-linejoin="round"></path></svg></g></svg></g></svg></g></svg></g><g></g></svg></g></svg></g></mask><g mask="url(#533f3dc3-cc4a-4b41-889d-a9dbc5b59ec1)"><g><path d="M1 224.443v-42.515h12.962v-116.656h-12.962v-42.515h118.989c21.603 0 38.453 4.407 50.551 13.221 12.098 8.814 18.147 21.43 18.147 37.849v0c0 10.197-2.42 18.786-7.259 25.768-4.839 7.017-10.508 12.288-17.006 15.813-6.464 3.56-12.72 5.945-18.768 7.155v0 2.592c12.271 1.21 23.331 5.098 33.182 11.666 9.851 6.567 14.776 18.319 14.776 35.256v0c0 18.147-6.827 31.402-20.479 39.767-13.653 8.399-31.368 12.599-53.144 12.599v0zM86.548 107.787h13.999c5.012 0 8.779-1.348 11.302-4.044 2.489-2.661 3.733-6.844 3.733-12.547v0-9.333c0-5.703-1.244-9.903-3.733-12.599-2.523-2.661-6.291-3.992-11.302-3.992v0h-13.999zM86.548 181.928h15.813c5.012 0 8.779-1.331 11.303-3.992 2.489-2.696 3.733-6.896 3.733-12.599v0-11.406c0-5.703-1.244-9.903-3.733-12.599-2.523-2.661-6.291-3.992-11.303-3.993v0h-15.813zM201.908 224.443v-42.515h12.962v-116.656h-12.962v-42.515h118.989c21.603 0 38.453 4.407 50.551 13.221 12.098 8.814 18.147 21.43 18.147 37.849v0c0 10.197-2.42 18.786-7.259 25.768-4.839 7.017-10.49 12.288-16.954 15.813-6.498 3.56-12.772 5.945-18.821 7.155v0 2.592c12.271 1.21 23.331 5.098 33.183 11.666 9.851 6.567 14.776 18.319 14.776 35.256v0c0 18.147-6.827 31.402-20.48 39.767-13.653 8.399-31.368 12.599-53.143 12.599v0zM287.456 107.787h13.998c5.012 0 8.779-1.348 11.303-4.044 2.489-2.661 3.733-6.844 3.733-12.547v0-9.333c0-5.703-1.244-9.903-3.733-12.599-2.523-2.661-6.291-3.992-11.303-3.992v0h-13.998zM287.456 181.928h15.813c5.012 0 8.779-1.331 11.303-3.992 2.489-2.696 3.733-6.896 3.733-12.599v0-11.406c0-5.703-1.244-9.903-3.733-12.599-2.523-2.661-6.291-3.992-11.303-3.993v0h-15.813z" fill="#000000" fill-rule="nonzero" stroke="none" stroke-width="1" stroke-linecap="butt" stroke-linejoin="miter" stroke-miterlimit="10" stroke-dasharray="" stroke-dashoffset="0" font-family="none" font-weight="none" font-size="none" text-anchor="none" style="mix-blend-mode: normal" data-fill-palette-color="tertiary"></path></g></g><g transform="matrix(1,0,0,1,0,90.75048044692736)"><svg viewBox="0 0 395.52 65.69903910614526" height="65.69903910614526" width="395.52"><g><svg viewBox="0 0 395.52 65.69903910614526" height="65.69903910614526" width="395.52"><g><svg viewBox="0 0 395.52 65.69903910614526" height="65.69903910614526" width="395.52"><g id="textblocktransform"><svg viewBox="0 0 395.52 65.69903910614526" height="65.69903910614526" width="395.52" id="textblock"><g><svg viewBox="0 0 395.52 65.69903910614526" height="65.69903910614526" width="395.52"><g transform="matrix(1,0,0,1,0,0)"><svg width="395.52" viewBox="-2 -41.9 269.48 45.6" height="65.69903910614526" data-palette-color="#000000"><path d="M1 0L1-8.2 3.5-8.2 3.5-30.7 1-30.7 1-38.9 23.95-38.9Q30.2-38.9 33.7-36.35 37.2-33.8 37.2-29.05L37.2-29.05Q37.2-26.1 35.8-24.08 34.4-22.05 32.52-21.03 30.65-20 28.9-19.65L28.9-19.65 28.9-19.15Q32.45-18.8 35.3-16.9 38.15-15 38.15-10.1L38.15-10.1Q38.15-4.85 34.2-2.43 30.25 0 23.95 0L23.95 0 1 0ZM17.5-22.5L20.2-22.5Q21.65-22.5 22.38-23.28 23.1-24.05 23.1-25.7L23.1-25.7 23.1-27.5Q23.1-29.15 22.38-29.93 21.65-30.7 20.2-30.7L20.2-30.7 17.5-30.7 17.5-22.5ZM17.5-8.2L20.55-8.2Q22-8.2 22.73-8.97 23.45-9.75 23.45-11.4L23.45-11.4 23.45-13.6Q23.45-15.25 22.73-16.03 22-16.8 20.55-16.8L20.55-16.8 17.5-16.8 17.5-8.2ZM61-28.5Q62-28.5 62.9-28.3 63.8-28.1 64.4-27.8L64.4-27.8 64.4-18.25Q62.35-19.1 60-19.1L60-19.1Q56.85-19.1 55.15-17.45 53.45-15.8 53.45-12.55L53.45-12.55 53.45-8.2 57.95-8.2 57.95 0 39.75 0 39.75-8.2 41.95-8.2 41.95-19.6 39.75-19.6 39.75-27.8 53.45-27.8 53.45-24.15Q54.85-26.25 56.65-27.38 58.45-28.5 61-28.5L61-28.5ZM92.94-8.2L95.14-8.2 95.14 0 81.94 0 81.94-3.4Q80.84-1.8 78.87-0.55 76.89 0.7 74.05 0.7L74.05 0.7Q70.3 0.7 68.14-1.3 66-3.3 66-6.95L66-6.95Q66-16.4 82.05-16.65L82.05-16.65Q81.89-18.35 80.75-18.98 79.59-19.6 76.84-19.6L76.84-19.6Q74.59-19.6 72.02-19.13 69.44-18.65 67.3-17.85L67.3-17.85 67.3-27.05Q69.94-27.7 73.05-28.1 76.14-28.5 79.09-28.5L79.09-28.5Q86.55-28.5 89.75-25.8 92.94-23.1 92.94-17.45L92.94-17.45 92.94-8.2ZM81.94-11.4L81.94-11.7Q79.69-11.7 78.47-11.1 77.25-10.5 77.25-9.1L77.25-9.1Q77.25-8.25 77.77-7.73 78.3-7.2 79.25-7.2L79.25-7.2Q80.55-7.2 81.25-8.3 81.94-9.4 81.94-11.4L81.94-11.4ZM109.34-30.55L99.14-30.55 99.14-38.9 109.34-38.9 109.34-30.55ZM112.64 0L96.74 0 96.74-8.2 98.94-8.2 98.94-19.6 96.74-19.6 96.74-27.8 110.44-27.8 110.44-8.2 112.64-8.2 112.64 0ZM145.04-8.2L147.24-8.2 147.24 0 131.44 0 131.44-8.2 133.54-8.2 133.54-16.4Q133.54-18.05 132.84-18.82 132.14-19.6 130.74-19.6L130.74-19.6Q127.74-19.6 127.74-16.4L127.74-16.4 127.74-8.2 129.84-8.2 129.84 0 114.04 0 114.04-8.2 116.24-8.2 116.24-19.6 114.04-19.6 114.04-27.8 127.74-27.8 127.74-23.9Q131.34-28.5 136.74-28.5L136.74-28.5Q140.89-28.5 142.97-25.9 145.04-23.3 145.04-18.75L145.04-18.75 145.04-8.2ZM163.94 0L163.94-8.2 166.44-8.2 166.44-30.7 163.94-30.7 163.94-38.9 186.88-38.9Q193.13-38.9 196.63-36.35 200.13-33.8 200.13-29.05L200.13-29.05Q200.13-26.1 198.74-24.08 197.34-22.05 195.46-21.03 193.59-20 191.84-19.65L191.84-19.65 191.84-19.15Q195.38-18.8 198.24-16.9 201.09-15 201.09-10.1L201.09-10.1Q201.09-4.85 197.13-2.43 193.19 0 186.88 0L186.88 0 163.94 0ZM180.44-22.5L183.13-22.5Q184.59-22.5 185.31-23.28 186.03-24.05 186.03-25.7L186.03-25.7 186.03-27.5Q186.03-29.15 185.31-29.93 184.59-30.7 183.13-30.7L183.13-30.7 180.44-30.7 180.44-22.5ZM180.44-8.2L183.49-8.2Q184.94-8.2 185.66-8.97 186.38-9.75 186.38-11.4L186.38-11.4 186.38-13.6Q186.38-15.25 185.66-16.03 184.94-16.8 183.49-16.8L183.49-16.8 180.44-16.8 180.44-8.2ZM217.48 0.7Q210.38 0.7 206.38-3.03 202.38-6.75 202.38-13.9L202.38-13.9Q202.38-21.05 206.38-24.78 210.38-28.5 217.48-28.5L217.48-28.5Q224.68-28.5 228.63-24.73 232.58-20.95 232.58-13.9L232.58-13.9Q232.58-6.75 228.58-3.03 224.58 0.7 217.48 0.7L217.48 0.7ZM217.48-8.2Q218.93-8.2 219.66-8.97 220.38-9.75 220.38-11.4L220.38-11.4 220.38-16.4Q220.38-18.05 219.66-18.82 218.93-19.6 217.48-19.6L217.48-19.6Q216.03-19.6 215.31-18.82 214.58-18.05 214.58-16.4L214.58-16.4 214.58-11.4Q214.58-9.75 215.31-8.97 216.03-8.2 217.48-8.2L217.48-8.2ZM256.43-14.3L262.88-8.2 264.48-8.2 264.48 0 248.88 0 248.88-8.2 250.28-8.2 248.33-11.15 247.83-11.15 245.88-8.2 247.28-8.2 247.28 0 233.88 0 233.88-8.2 235.98-8.2 242.03-13.6 235.68-19.6 234.08-19.6 234.08-27.8 249.68-27.8 249.68-19.6 248.28-19.6 250.23-16.7 250.73-16.7 252.68-19.6 251.28-19.6 251.28-27.8 264.28-27.8 264.28-19.6 262.18-19.6 256.43-14.3Z" opacity="1" transform="matrix(1,0,0,1,0,0)" fill="#000000" class="wordmark-text-0" data-fill-palette-color="primary" id="text-0"></path></svg></g></svg></g></svg></g></svg></g><g></g></svg></g></svg></g></svg></g><defs></defs></svg><rect width="395.52" height="247.2" fill="none" stroke="none" visibility="hidden"></rect></g></svg></g></svg>